Enjoy and please share.																																				                                     TTLTTLTTTTLTTLTTLTTLTTLTTLTTLTTLTTLTTLTTLTTLTTLTTL																																											                                						                                                      Wilson Phillips_The_View_FULL_SEGMENT_720p.HDTV,x264_2012-04-04_TTL.mkv
Format                           : Matroska
File size                        : 241 MiB
Duration                         : 11mn 30s
Overall bit rate                 : 2 924 Kbps
Writing application              : HandBrake 0.9.5
Writing library                  : libmkv 0.6.4.1

Video
ID                               : 1
Format                           : AVC
Format/Info                      : Advanced Video Codec
Format profile                   : High@L3.2
Format settings, CABAC           : Yes
Format settings, ReFrames        : 4 frames
Muxing mode                      : Container profile=Unknown@3.2
Codec ID                         : V_MPEG4/ISO/AVC
Duration                         : 11mn 30s
Bit rate                         : 2 642 Kbps
Nominal bit rate                 : 2 684 Kbps
Width                            : 1 280 pixels
Height                           : 720 pixels
Display aspect ratio             : 16:9
Frame rate mode                  : Variable
Frame rate                       : 59.940 fps
Resolution                       : 8 bits
Colorimetry                      : 4:2:0
Scan type                        : Progressive
Bits/(Pixel*Frame)               : 0.048
Stream size                      : 217 MiB (90%)
Writing library                  : x264 core 112

Audio
ID                               : 2
Format                           : AC-3
Format/Info                      : Audio Coding 3
Codec ID                         : A_AC3
Duration                         : 11mn 30s
Bit rate mode                    : Constant
Bit rate                         : 224 Kbps
Channel(s)                       : 2 channels
Channel positions                : L R
Sampling rate                    : 48.0 KHz
Stream size                      : 18.4 MiB (8%)



